<svg xmlns="http://www.w3.org/2000/svg" width="1200" height="900" viewBox="0 0 1200 900" preserveAspectRatio="xMidYMid slice">
  <defs>
    <linearGradient id="bg7" x1="0" y1="0" x2="1" y2="1">
      <stop offset="0" stop-color="#101a38"/>
      <stop offset="1" stop-color="#1b2a52"/>
    </linearGradient>
  </defs>
  <rect width="1200" height="900" fill="url(#bg7)"/>
  <g opacity="0.14">
    <circle cx="600" cy="450" r="340" fill="none" stroke="#f2c14e" stroke-width="2"/>
    <circle cx="600" cy="450" r="240" fill="none" stroke="#f2c14e" stroke-width="2"/>
  </g>
  <g fill="#fdf3dd">
    <rect x="360" y="150" width="480" height="600" rx="14"/>
    <rect x="398" y="200" width="404" height="34" rx="4"/>
    <rect x="398" y="280" width="404" height="14" rx="3"/>
    <rect x="398" y="314" width="404" height="14" rx="3"/>
    <rect x="398" y="348" width="220" height="14" rx="3"/>
  </g>
  <g fill="#921a44">
    <rect x="398" y="200" width="120" height="34" rx="4"/>
    <text x="458" y="223" text-anchor="middle" font-family="Poppins, Arial, sans-serif" font-size="18" font-weight="700" fill="#fdf3dd">DOCUMENT</text>
  </g>
  <g fill="none" stroke="#1b2a52" stroke-opacity="0.7" stroke-width="3">
    <path d="M420 210 q80 0 160 30"/>
  </g>
  <g>
    <line x1="398" y1="300" x2="802" y2="300" stroke="#f2c14e" stroke-width="3"/>
    <rect x="398" y="420" width="404" height="120" rx="8" fill="#f8f4ee" stroke="#d99b28" stroke-width="2"/>
    <rect x="420" y="700" width="70" height="70" rx="8" fill="#d99b28" stroke="#4a1147" stroke-width="3"/>
    <path d="M456 735 l-26 -28 h16 v-16 h20 v16 h16 z" fill="#4a1147"/>
  </g>
  <g stroke="#d99b28" stroke-width="3" fill="none">
    <circle cx="800" cy="700" r="60"/>
    <path d="M800 700 l0 -34 M800 700 l30 18" stroke-linecap="round"/>
    <rect x="800" y="700" width="60" height="60" rx="8" />
  </g>
  <text x="798" y="584" text-anchor="middle" font-family="Poppins, Arial, sans-serif" font-size="34" letter-spacing="6" fill="#1b2a52">TRANSPARENT</text>
  <text x="798" y="620" text-anchor="middle" font-family="Poppins, Arial, sans-serif" font-size="30" letter-spacing="6" fill="#921a44">DOCUMENTATION</text>
  <text x="600" y="92" text-anchor="middle" font-family="Poppins, Arial, sans-serif" font-size="30" letter-spacing="10" fill="#f2c14e">CLEAR LAND TITLES · 100% VERIFIED</text>
</svg>