<svg xmlns="http://www.w3.org/2000/svg" width="1200" height="900" viewBox="0 0 1200 900" preserveAspectRatio="xMidYMid slice">
  <defs>
    <linearGradient id="sky3" x1="0" y1="0" x2="0" y2="1">
      <stop offset="0" stop-color="#101a38"/>
      <stop offset="1" stop-color="#1b2a52"/>
    </linearGradient>
    <linearGradient id="grownd" x1="0" y1="0" x2="0" y2="1">
      <stop offset="0" stop-color="#f8f4ee"/>
      <stop offset="1" stop-color="#fdf3dd"/>
    </linearGradient>
  </defs>
  <rect width="1200" height="900" fill="url(#sky3)"/>
  <rect y="300" width="1200" height="600" fill="url(#grownd)"/>
  <g stroke="#1b2a52" stroke-width="2" fill="none">
    <path d="M120 300 L1080 300" stroke="#d99b28" stroke-width="6"/>
    <path d="M180 760 L1020 760" stroke="#d99b28" stroke-width="6" stroke-dasharray="30 16"/>
  </g>
  <g stroke="#921a44" stroke-width="5" fill="none">
    <rect x="150" y="330" width="900" height="400" rx="10" stroke="#1b2a52"/>
    <rect x="180" y="360" width="270" height="190" rx="6"/>
    <rect x="480" y="360" width="270" height="190" rx="6"/>
    <rect x="180" y="580" width="270" height="140" rx="6"/>
    <rect x="480" y="580" width="270" height="140" rx="6"/>
  </g>
  <g stroke="#921a44" stroke-width="8" stroke-linecap="round" opacity="0.85">
    <path d="M610 180 L610 300" />
    <path d="M610 196 q40 6 70 34" fill="none" stroke-width="5"/>
  </g>
  <g fill="#4a1147">
    <text x="690" y="170" font-family="Poppins, Arial, sans-serif" font-size="22" font-weight="700" fill="#f2c14e">PREMIUM PLOTS · 40 FT ROADS</text>
  </g>
  <g fill="#2f7d4f">
    <circle cx="330" cy="300" r="16"/><circle cx="900" cy="320" r="14"/>
    <circle cx="140" cy="300" r="12"/><circle cx="1060" cy="300" r="12"/>
  </g>
  <g fill="#d99b28">
    <rect x="560" y="470" width="100" height="60" rx="6"/>
    <text x="610" y="505" text-anchor="middle" font-family="Poppins, Arial, sans-serif" font-size="17" font-weight="700" fill="#4a1147">PLOT</text>
  </g>
  <g stroke="#f2c14e" stroke-width="2" opacity="0.9">
    <circle cx="438" cy="446" r="10" fill="none"/>
    <circle cx="620" cy="646" r="10" fill="none"/>
    <circle cx="790" cy="430" r="10" fill="none"/>
  </g>
  <g fill="#ffffff" fill-opacity="0.92">
    <circle cx="438" cy="446" r="3" fill="#921a44"/>
    <circle cx="620" cy="646" r="3" fill="#921a44"/>
    <circle cx="790" cy="430" r="3" fill="#921a44"/>
  </g>
  <text x="600" y="120" text-anchor="middle" font-family="Poppins, Arial, sans-serif" font-size="30" letter-spacing="10" fill="#f2c14e">PREMIUM PLOTS · CLEAR TITLES</text>
</svg>